<svg width="37" height="43" viewBox="0 0 37 43" fill="none" xmlns="http://www.w3.org/2000/svg">
<rect width="36.8837" height="43" fill="black" fill-opacity="0"/>
<path d="M18.4441 19.7228C18.0888 19.7235 17.7417 19.8282 17.4466 20.0237C17.1515 20.2192 16.9217 20.4967 16.7862 20.8212C16.6507 21.1457 16.6156 21.5026 16.6853 21.8468C16.7551 22.191 16.9265 22.507 17.1779 22.755C17.4294 23.003 17.7496 23.1718 18.0981 23.24C18.4466 23.3082 18.8078 23.2729 19.136 23.1384C19.4641 23.0039 19.7446 22.7764 19.9419 22.4844C20.1392 22.1925 20.2446 21.8494 20.2446 21.4984C20.2437 21.0272 20.0536 20.5756 19.716 20.2427C19.3785 19.9098 18.921 19.7228 18.4441 19.7228" fill="#454CA0"/>
<path d="M26.752 14.7905C26.3958 14.7899 26.0474 14.8936 25.7509 15.0887C25.4543 15.2838 25.223 15.5614 25.0863 15.8863C24.9495 16.2113 24.9133 16.5691 24.9824 16.9144C25.0515 17.2596 25.2227 17.5769 25.4744 17.826C25.7261 18.0751 26.0469 18.2449 26.3962 18.3138C26.7455 18.3827 27.1077 18.3476 27.4369 18.2131C27.7661 18.0786 28.0475 17.8506 28.2455 17.558C28.4434 17.2654 28.5491 16.9213 28.5491 16.5694C28.5482 16.0984 28.3587 15.647 28.022 15.3137C27.6853 14.9804 27.2287 14.7923 26.752 14.7905" fill="#454CA0"/>
<path d="M35.0661 9.86142C34.7106 9.86469 34.3641 9.97187 34.0701 10.1695C33.7762 10.367 33.548 10.6462 33.4144 10.9717C33.2808 11.2972 33.2478 11.6545 33.3194 11.9985C33.391 12.3426 33.5641 12.658 33.8169 12.905C34.0697 13.152 34.3908 13.3195 34.7398 13.3864C35.0888 13.4533 35.4501 13.4167 35.778 13.2811C36.106 13.1455 36.386 12.917 36.5827 12.6244C36.7794 12.3318 36.884 11.9882 36.8833 11.6369C36.8824 11.1657 36.6924 10.7141 36.3548 10.3813C36.0173 10.0484 35.5598 9.86142 35.0829 9.86142" fill="#454CA0"/>
<path d="M10.1175 4.93239C9.76098 4.93174 9.41229 5.03567 9.11562 5.23103C8.81896 5.42639 8.58767 5.70437 8.45109 6.02973C8.3145 6.3551 8.27876 6.71321 8.3484 7.05867C8.41804 7.40412 8.58991 7.72138 8.84225 7.97022C9.09458 8.21906 9.41601 8.38828 9.76579 8.45644C10.1156 8.52459 10.478 8.48861 10.807 8.35306C11.1361 8.2175 11.417 7.98848 11.6142 7.69501C11.8114 7.40154 11.9159 7.05684 11.9146 6.7046C11.9137 6.23397 11.7241 5.78287 11.3872 5.45008C11.0504 5.1173 10.5938 4.92995 10.1175 4.92908" fill="#454CA0"/>
<path d="M18.4423 0C18.0862 0 17.7381 0.104327 17.442 0.299787C17.1459 0.495248 16.9152 0.773063 16.7789 1.0981C16.6426 1.42314 16.607 1.78081 16.6764 2.12587C16.7459 2.47093 16.9174 2.78788 17.1692 3.03666C17.421 3.28543 17.7418 3.45485 18.091 3.52349C18.4403 3.59212 18.8023 3.5569 19.1313 3.42226C19.4603 3.28762 19.7415 3.05963 19.9393 2.7671C20.1371 2.47457 20.2427 2.13065 20.2427 1.77883C20.2418 1.30733 20.0519 0.855381 19.7144 0.521975C19.3769 0.188569 18.9195 0.000875595 18.4423 0" fill="#454CA0"/>
<path d="M18.4435 9.86142C18.0873 9.86142 17.739 9.96583 17.4429 10.1614C17.1467 10.357 16.916 10.6351 16.7798 10.9603C16.6436 11.2855 16.6082 11.6434 16.6779 11.9885C16.7477 12.3337 16.9195 12.6506 17.1716 12.8992C17.4237 13.1479 17.7448 13.317 18.0943 13.3853C18.4438 13.4536 18.8059 13.4179 19.1348 13.2827C19.4637 13.1476 19.7447 12.9191 19.9421 12.6261C20.1396 12.3331 20.2446 11.9889 20.2439 11.6369C20.243 11.1657 20.053 10.7141 19.7154 10.3813C19.3779 10.0484 18.9204 9.86142 18.4435 9.86142" fill="#454CA0"/>
<path d="M26.752 4.93239C26.3955 4.93174 26.0468 5.03567 25.7501 5.23103C25.4535 5.42639 25.2222 5.70437 25.0856 6.02973C24.949 6.3551 24.9133 6.71321 24.9829 7.05867C25.0526 7.40412 25.2244 7.72138 25.4768 7.97022C25.7291 8.21906 26.0505 8.38828 26.4003 8.45644C26.7501 8.52459 27.1125 8.48861 27.4415 8.35306C27.7706 8.2175 28.0515 7.98848 28.2487 7.69501C28.4459 7.40154 28.5504 7.05684 28.5491 6.7046C28.5482 6.23397 28.3586 5.78287 28.0218 5.45008C27.6849 5.1173 27.2284 4.92995 26.752 4.92908" fill="#454CA0"/>
<path d="M26.752 24.652C26.3957 24.6513 26.0471 24.7551 25.7505 24.9504C25.4539 25.1456 25.2226 25.4233 25.0859 25.7485C24.9492 26.0737 24.9133 26.4316 24.9827 26.777C25.052 27.1224 25.2236 27.4396 25.4756 27.6886C25.7276 27.9376 26.0487 28.1071 26.3983 28.1756C26.7478 28.2441 27.1101 28.2086 27.4392 28.0736C27.7683 27.9385 28.0495 27.71 28.2471 27.417C28.4447 27.1239 28.5498 26.7796 28.5491 26.4275C28.5482 25.9568 28.3586 25.5057 28.0218 25.173C27.685 24.8402 27.2284 24.6528 26.752 24.652" fill="#454CA0"/>
<path d="M35.0665 19.7228C34.712 19.7268 34.3665 19.8342 34.0737 20.0317C33.7808 20.2291 33.5536 20.5078 33.4206 20.8326C33.2877 21.1573 33.255 21.5137 33.3266 21.8568C33.3982 22.1999 33.5709 22.5144 33.823 22.7607C34.0751 23.007 34.3953 23.1742 34.7434 23.2411C35.0914 23.308 35.4517 23.2717 35.7789 23.1367C36.1061 23.0018 36.3856 22.7742 36.5822 22.4827C36.7788 22.1912 36.8837 21.8487 36.8837 21.4984C36.8837 21.2649 36.8371 21.0338 36.7466 20.8181C36.6561 20.6025 36.5234 20.4066 36.3562 20.2417C36.1889 20.0768 35.9904 19.9461 35.772 19.857C35.5536 19.768 35.3196 19.7224 35.0833 19.7228" fill="#454CA0"/>
<path d="M26.752 34.51C26.3958 34.5093 26.0474 34.6131 25.7509 34.8082C25.4543 35.0032 25.223 35.2808 25.0863 35.6058C24.9495 35.9308 24.9133 36.2885 24.9824 36.6338C25.0515 36.9791 25.2227 37.2964 25.4744 37.5455C25.7261 37.7946 26.0469 37.9643 26.3962 38.0332C26.7455 38.1021 27.1077 38.0671 27.4369 37.9326C27.7661 37.798 28.0475 37.57 28.2455 37.2774C28.4434 36.9848 28.5491 36.6408 28.5491 36.2888C28.5482 35.8179 28.3587 35.3664 28.022 35.0331C27.6853 34.6998 27.2287 34.5117 26.752 34.51Z" fill="#454CA0"/>
<path d="M35.0658 29.5809C34.7097 29.5809 34.3616 29.6852 34.0655 29.8807C33.7695 30.0762 33.5387 30.354 33.4024 30.679C33.2662 31.004 33.2305 31.3617 33.3 31.7068C33.3694 32.0518 33.5409 32.3688 33.7927 32.6176C34.0445 32.8663 34.3653 33.0358 34.7146 33.1044C35.0638 33.173 35.4258 33.1378 35.7548 33.0032C36.0838 32.8685 36.365 32.6405 36.5628 32.348C36.7607 32.0555 36.8662 31.7116 36.8662 31.3597C36.8662 30.888 36.6766 30.4355 36.3389 30.1019C36.0013 29.7683 35.5433 29.5809 35.0658 29.5809" fill="#454CA0"/>
<path d="M18.4435 39.4423C18.0873 39.4423 17.739 39.5467 17.4429 39.7423C17.1467 39.9379 16.916 40.216 16.7798 40.5412C16.6436 40.8664 16.6082 41.2243 16.6779 41.5694C16.7477 41.9146 16.9195 42.2315 17.1716 42.4802C17.4237 42.7288 17.7448 42.8979 18.0943 42.9662C18.4438 43.0345 18.8059 42.9988 19.1348 42.8636C19.4637 42.7285 19.7447 42.5 19.9421 42.207C20.1396 41.914 20.2446 41.5698 20.2439 41.2178C20.243 40.7466 20.053 40.295 19.7154 39.9622C19.3779 39.6293 18.9204 39.4423 18.4435 39.4423" fill="#454CA0"/>
<path d="M18.4435 29.5809C18.0874 29.5809 17.7393 29.6852 17.4432 29.8807C17.1472 30.0762 16.9164 30.354 16.7801 30.679C16.6438 31.004 16.6082 31.3617 16.6777 31.7068C16.7471 32.0518 16.9186 32.3688 17.1704 32.6176C17.4222 32.8663 17.743 33.0358 18.0923 33.1044C18.4415 33.173 18.8035 33.1378 19.1325 33.0032C19.4615 32.8685 19.7427 32.6405 19.9405 32.348C20.1383 32.0555 20.2439 31.7116 20.2439 31.3597C20.2431 30.8882 20.0531 30.4363 19.7156 30.1029C19.3782 29.7695 18.9207 29.5818 18.4435 29.5809" fill="#454CA0"/>
<path d="M10.1187 14.7905C9.76249 14.7899 9.41407 14.8936 9.11755 15.0887C8.82103 15.2838 8.58974 15.5614 8.45296 15.8863C8.31617 16.2113 8.28004 16.5691 8.34913 16.9144C8.41822 17.2596 8.58943 17.5769 8.84109 17.826C9.09275 18.0751 9.41355 18.2449 9.76289 18.3138C10.1122 18.3827 10.4744 18.3476 10.8036 18.2131C11.1328 18.0786 11.4142 17.8506 11.6121 17.558C11.8101 17.2654 11.9158 16.9213 11.9158 16.5694C11.9149 16.0984 11.7254 15.647 11.3887 15.3137C11.052 14.9804 10.5954 14.7923 10.1187 14.7905" fill="#454CA0"/>
<path d="M10.1187 34.51C9.76249 34.5093 9.41407 34.6131 9.11755 34.8082C8.82103 35.0032 8.58974 35.2808 8.45296 35.6058C8.31617 35.9308 8.28004 36.2885 8.34913 36.6338C8.41822 36.9791 8.58943 37.2964 8.84109 37.5455C9.09275 37.7946 9.41355 37.9643 9.76289 38.0332C10.1122 38.1021 10.4744 38.0671 10.8036 37.9326C11.1328 37.798 11.4142 37.57 11.6121 37.2774C11.8101 36.9848 11.9158 36.6408 11.9158 36.2888C11.9149 35.8179 11.7254 35.3664 11.3887 35.0331C11.052 34.6998 10.5954 34.5117 10.1187 34.51" fill="#454CA0"/>
<path d="M10.1187 24.6519C9.76235 24.6513 9.41379 24.7551 9.1172 24.9503C8.82061 25.1455 8.58932 25.4233 8.45263 25.7485C8.31595 26.0737 8.28001 26.4316 8.34937 26.777C8.41874 27.1223 8.59028 27.4396 8.84228 27.6886C9.09427 27.9375 9.41539 28.107 9.76495 28.1756C10.1145 28.2441 10.4768 28.2086 10.8059 28.0735C11.135 27.9385 11.4162 27.71 11.6138 27.417C11.8114 27.1239 11.9165 26.7795 11.9158 26.4274C11.9149 25.9568 11.7253 25.5057 11.3885 25.1729C11.0517 24.8401 10.5951 24.6528 10.1187 24.6519" fill="#454CA0"/>
<path d="M1.80043 9.86142C1.4442 9.86142 1.09597 9.96583 0.799816 10.1614C0.503664 10.357 0.272901 10.6351 0.136729 10.9603C0.000557494 11.2855 -0.0349005 11.6434 0.0348418 11.9885C0.104584 12.3337 0.276393 12.6506 0.528523 12.8992C0.780654 13.1479 1.10177 13.317 1.45124 13.3853C1.80072 13.4536 2.16283 13.4179 2.49176 13.2827C2.82068 13.1476 3.10164 12.9191 3.29907 12.6261C3.4965 12.3331 3.60153 11.9889 3.60087 11.6369C3.59998 11.1657 3.4099 10.7141 3.07235 10.3813C2.7348 10.0484 2.27736 9.86142 1.80043 9.86142Z" fill="#454CA0"/>
<path d="M1.80044 29.5809C1.44434 29.5809 1.09625 29.6852 0.800168 29.8807C0.504088 30.0761 0.273321 30.3539 0.137051 30.679C0.000780127 31.004 -0.0348745 31.3617 0.0345956 31.7067C0.104066 32.0518 0.275541 32.3688 0.527336 32.6175C0.779131 32.8663 1.09994 33.0357 1.44919 33.1044C1.79844 33.173 2.16045 33.1378 2.48943 33.0031C2.81842 32.8685 3.09961 32.6405 3.29744 32.348C3.49528 32.0554 3.60087 31.7115 3.60087 31.3597C3.59998 30.8882 3.41001 30.4363 3.07256 30.1028C2.7351 29.7694 2.27767 29.5817 1.80044 29.5809" fill="#454CA0"/>
<path d="M1.80057 19.7228C1.44528 19.7235 1.09816 19.8282 0.803076 20.0236C0.507988 20.2191 0.278174 20.4967 0.142671 20.8212C0.00716862 21.1456 -0.0279422 21.5025 0.0417768 21.8467C0.111496 22.1909 0.282916 22.507 0.534375 22.755C0.785834 23.003 1.10605 23.1717 1.45456 23.24C1.80306 23.3082 2.16423 23.2729 2.4924 23.1384C2.82058 23.0039 3.10105 22.7763 3.29837 22.4844C3.49569 22.1925 3.601 21.8494 3.601 21.4983C3.60011 21.0271 3.41003 20.5755 3.07248 20.2426C2.73493 19.9098 2.27749 19.7228 1.80057 19.7228Z" fill="#454CA0"/>
</svg>
